<svg width="49" height="14" viewBox="0 0 49 14" fill="none" xmlns="http://www.w3.org/2000/svg">
<g clip-path="url(#clip0_9_13)">
<path d="M6.884 11.12C6.244 11.12 5.66 11.012 5.132 10.796C4.604 10.58 4.144 10.276 3.752 9.884C3.36 9.492 3.056 9.032 2.84 8.504C2.624 7.976 2.516 7.396 2.516 6.764C2.516 6.132 2.624 5.552 2.84 5.024C3.056 4.496 3.36 4.036 3.752 3.644C4.144 3.252 4.604 2.948 5.132 2.732C5.66 2.516 6.24 2.408 6.872 2.408C7.504 2.408 8.084 2.516 8.612 2.732C9.14 2.948 9.6 3.252 9.992 3.644C10.384 4.036 10.684 4.496 10.892 5.024C11.108 5.552 11.216 6.132 11.216 6.764C11.216 7.388 11.108 7.968 10.892 8.504C10.684 9.032 10.384 9.492 9.992 9.884C9.6 10.276 9.14 10.58 8.612 10.796C8.084 11.012 7.508 11.12 6.884 11.12ZM6.872 9.2C7.2 9.2 7.5 9.14 7.772 9.02C8.052 8.9 8.292 8.732 8.492 8.516C8.7 8.292 8.86 8.032 8.972 7.736C9.084 7.44 9.14 7.116 9.14 6.764C9.14 6.412 9.084 6.088 8.972 5.792C8.86 5.496 8.7 5.24 8.492 5.024C8.292 4.8 8.052 4.628 7.772 4.508C7.5 4.388 7.2 4.328 6.872 4.328C6.544 4.328 6.24 4.388 5.96 4.508C5.688 4.628 5.448 4.8 5.24 5.024C5.032 5.24 4.872 5.496 4.76 5.792C4.656 6.088 4.604 6.412 4.604 6.764C4.604 7.116 4.656 7.444 4.76 7.748C4.872 8.044 5.032 8.3 5.24 8.516C5.448 8.732 5.688 8.9 5.96 9.02C6.24 9.14 6.544 9.2 6.872 9.2ZM11.7503 13.64V4.628H13.5743L13.6463 6.056L13.2863 5.948C13.3423 5.684 13.4783 5.444 13.6943 5.228C13.9103 5.012 14.1823 4.84 14.5103 4.712C14.8463 4.576 15.1983 4.508 15.5663 4.508C16.1103 4.508 16.5943 4.652 17.0183 4.94C17.4423 5.22 17.7743 5.608 18.0143 6.104C18.2623 6.592 18.3863 7.16 18.3863 7.808C18.3863 8.448 18.2623 9.016 18.0143 9.512C17.7743 10.008 17.4383 10.4 17.0063 10.688C16.5823 10.968 16.0943 11.108 15.5423 11.108C15.1823 11.108 14.8383 11.04 14.5103 10.904C14.1823 10.768 13.9063 10.584 13.6823 10.352C13.4583 10.12 13.3103 9.868 13.2383 9.596L13.6823 9.428V13.64H11.7503ZM15.0743 9.488C15.3623 9.488 15.6143 9.42 15.8303 9.284C16.0463 9.14 16.2143 8.944 16.3343 8.696C16.4543 8.448 16.5143 8.152 16.5143 7.808C16.5143 7.472 16.4543 7.18 16.3343 6.932C16.2143 6.676 16.0463 6.48 15.8303 6.344C15.6223 6.2 15.3703 6.128 15.0743 6.128C14.7783 6.128 14.5223 6.196 14.3063 6.332C14.0903 6.468 13.9223 6.664 13.8023 6.92C13.6823 7.176 13.6223 7.472 13.6223 7.808C13.6223 8.152 13.6823 8.448 13.8023 8.696C13.9223 8.944 14.0903 9.14 14.3063 9.284C14.5223 9.42 14.7783 9.488 15.0743 9.488ZM20.9684 11.12C20.3444 11.12 19.7924 11.02 19.3124 10.82C18.8404 10.62 18.4644 10.352 18.1844 10.016L19.3484 9.008C19.5964 9.256 19.8764 9.44 20.1884 9.56C20.5004 9.672 20.7964 9.728 21.0764 9.728C21.1884 9.728 21.2884 9.716 21.3764 9.692C21.4644 9.668 21.5364 9.636 21.5924 9.596C21.6564 9.548 21.7044 9.496 21.7364 9.44C21.7684 9.376 21.7844 9.304 21.7844 9.224C21.7844 9.064 21.7124 8.94 21.5684 8.852C21.4964 8.812 21.3764 8.764 21.2084 8.708C21.0404 8.652 20.8244 8.588 20.5604 8.516C20.1844 8.42 19.8564 8.308 19.5764 8.18C19.3044 8.044 19.0804 7.888 18.9044 7.712C18.7444 7.544 18.6204 7.36 18.5324 7.16C18.4444 6.952 18.4004 6.72 18.4004 6.464C18.4004 6.168 18.4684 5.9 18.6044 5.66C18.7484 5.42 18.9364 5.212 19.1684 5.036C19.4084 4.86 19.6804 4.728 19.9844 4.64C20.2964 4.544 20.6164 4.496 20.9444 4.496C21.2964 4.496 21.6324 4.536 21.9524 4.616C22.2724 4.696 22.5684 4.808 22.8404 4.952C23.1204 5.096 23.3684 5.268 23.5844 5.468L22.5764 6.596C22.4324 6.46 22.2684 6.34 22.0844 6.236C21.9084 6.124 21.7244 6.036 21.5324 5.972C21.3404 5.908 21.1644 5.876 21.0044 5.876C20.8844 5.876 20.7764 5.888 20.6804 5.912C20.5924 5.928 20.5164 5.96 20.4524 6.008C20.3884 6.048 20.3404 6.1 20.3084 6.164C20.2764 6.22 20.2604 6.288 20.2604 6.368C20.2604 6.448 20.2804 6.524 20.3204 6.596C20.3684 6.668 20.4324 6.728 20.5124 6.776C20.5924 6.824 20.7204 6.88 20.8964 6.944C21.0724 7 21.3124 7.072 21.6164 7.16C21.9924 7.264 22.3164 7.38 22.5884 7.508C22.8604 7.636 23.0764 7.788 23.2364 7.964C23.3644 8.1 23.4604 8.26 23.5244 8.444C23.5884 8.62 23.6204 8.812 23.6204 9.02C23.6204 9.428 23.5044 9.792 23.2724 10.112C23.0484 10.424 22.7364 10.672 22.3364 10.856C21.9364 11.032 21.4804 11.12 20.9684 11.12ZM24.7258 13.76L26.1778 10.34L26.2018 11.324L23.1298 4.628H25.3018L26.6458 7.832C26.7178 7.992 26.7858 8.164 26.8498 8.348C26.9138 8.532 26.9618 8.708 26.9938 8.876L26.7298 9.032C26.7778 8.912 26.8298 8.764 26.8858 8.588C26.9498 8.404 27.0178 8.208 27.0898 8L28.2658 4.628H30.4498L27.7378 11L26.6338 13.76H24.7258ZM34.5552 11.12C33.9152 11.12 33.3312 11.012 32.8032 10.796C32.2752 10.58 31.8152 10.276 31.4232 9.884C31.0312 9.492 30.7272 9.032 30.5112 8.504C30.2952 7.976 30.1872 7.396 30.1872 6.764C30.1872 6.132 30.2952 5.552 30.5112 5.024C30.7272 4.496 31.0312 4.036 31.4232 3.644C31.8152 3.252 32.2752 2.948 32.8032 2.732C33.3312 2.516 33.9112 2.408 34.5432 2.408C35.1752 2.408 35.7552 2.516 36.2832 2.732C36.8112 2.948 37.2712 3.252 37.6632 3.644C38.0552 4.036 38.3552 4.496 38.5633 5.024C38.7792 5.552 38.8872 6.132 38.8872 6.764C38.8872 7.388 38.7792 7.968 38.5633 8.504C38.3552 9.032 38.0552 9.492 37.6632 9.884C37.2712 10.276 36.8112 10.58 36.2832 10.796C35.7552 11.012 35.1792 11.12 34.5552 11.12ZM34.5432 9.2C34.8712 9.2 35.1712 9.14 35.4432 9.02C35.7232 8.9 35.9632 8.732 36.1632 8.516C36.3712 8.292 36.5312 8.032 36.6432 7.736C36.7552 7.44 36.8112 7.116 36.8112 6.764C36.8112 6.412 36.7552 6.088 36.6432 5.792C36.5312 5.496 36.3712 5.24 36.1632 5.024C35.9632 4.8 35.7232 4.628 35.4432 4.508C35.1712 4.388 34.8712 4.328 34.5432 4.328C34.2152 4.328 33.9112 4.388 33.6312 4.508C33.3592 4.628 33.1192 4.8 32.9112 5.024C32.7032 5.24 32.5432 5.496 32.4312 5.792C32.3272 6.088 32.2752 6.412 32.2752 6.764C32.2752 7.116 32.3272 7.444 32.4312 7.748C32.5432 8.044 32.7032 8.3 32.9112 8.516C33.1192 8.732 33.3592 8.9 33.6312 9.02C33.9112 9.14 34.2152 9.2 34.5432 9.2ZM42.4095 11.12C41.8575 11.12 41.3575 11.056 40.9095 10.928C40.4695 10.792 40.0775 10.6 39.7335 10.352C39.3895 10.096 39.0815 9.796 38.8095 9.452L40.0455 8.048C40.4455 8.584 40.8455 8.944 41.2455 9.128C41.6535 9.312 42.0735 9.404 42.5055 9.404C42.7215 9.404 42.9175 9.376 43.0935 9.32C43.2695 9.264 43.4055 9.184 43.5015 9.08C43.5975 8.968 43.6455 8.832 43.6455 8.672C43.6455 8.552 43.6135 8.444 43.5495 8.348C43.4935 8.252 43.4135 8.168 43.3095 8.096C43.2055 8.024 43.0815 7.96 42.9375 7.904C42.7935 7.84 42.6415 7.788 42.4815 7.748C42.3215 7.7 42.1575 7.66 41.9895 7.628C41.5255 7.524 41.1215 7.396 40.7775 7.244C40.4335 7.092 40.1455 6.908 39.9135 6.692C39.6895 6.468 39.5215 6.216 39.4095 5.936C39.2975 5.648 39.2415 5.328 39.2415 4.976C39.2415 4.6 39.3255 4.256 39.4935 3.944C39.6695 3.624 39.9015 3.352 40.1895 3.128C40.4855 2.896 40.8255 2.72 41.2095 2.6C41.5935 2.472 41.9935 2.408 42.4095 2.408C42.9615 2.408 43.4335 2.468 43.8255 2.588C44.2255 2.7 44.5655 2.864 44.8455 3.08C45.1335 3.296 45.3775 3.556 45.5775 3.86L44.3175 5.072C44.1495 4.864 43.9655 4.692 43.7655 4.556C43.5735 4.42 43.3655 4.316 43.1415 4.244C42.9255 4.172 42.7015 4.136 42.4695 4.136C42.2295 4.136 42.0215 4.168 41.8455 4.232C41.6775 4.288 41.5455 4.372 41.4495 4.484C41.3535 4.588 41.3055 4.716 41.3055 4.868C41.3055 5.004 41.3455 5.12 41.4255 5.216C41.5055 5.312 41.6135 5.4 41.7495 5.48C41.8855 5.552 42.0415 5.616 42.2175 5.672C42.3935 5.72 42.5775 5.76 42.7695 5.792C43.2095 5.88 43.6055 5.996 43.9575 6.14C44.3175 6.284 44.6255 6.46 44.8815 6.668C45.1455 6.876 45.3455 7.124 45.4815 7.412C45.6255 7.692 45.6975 8.02 45.6975 8.396C45.6975 8.98 45.5535 9.476 45.2655 9.884C44.9855 10.284 44.5975 10.592 44.1015 10.808C43.6135 11.016 43.0495 11.12 42.4095 11.12Z" fill="white"/>
</g>
<path d="M6.7002 0.5H48.5V7.40039C48.4998 10.4378 46.0374 12.9004 43 12.9004H6.7002C3.2761 12.9004 0.500106 10.1243 0.5 6.7002C0.5 3.27603 3.27603 0.5 6.7002 0.5Z" stroke="white"/>
<defs>
<clipPath id="clip0_9_13">
<path d="M0 6.7C0 2.99969 2.99969 0 6.7 0H49V7.4C49 10.7137 46.3137 13.4 43 13.4H6.7C2.99969 13.4 0 10.4003 0 6.7V6.7Z" fill="white"/>
</clipPath>
</defs>
</svg>
