<svg width="14" height="14" viewBox="0 0 14 14" fill="none" xmlns="http://www.w3.org/2000/svg">
<path d="M6.75 0.5H12.9004V13H6.75C3.29822 13 0.5 10.2018 0.5 6.75C0.5 3.29822 3.29822 0.500001 6.75 0.5Z" stroke="white"/>
<path d="M6.884 11.12C6.244 11.12 5.66 11.012 5.132 10.796C4.604 10.58 4.144 10.276 3.752 9.884C3.36 9.492 3.056 9.032 2.84 8.504C2.624 7.976 2.516 7.396 2.516 6.764C2.516 6.132 2.624 5.552 2.84 5.024C3.056 4.496 3.36 4.036 3.752 3.644C4.144 3.252 4.604 2.948 5.132 2.732C5.66 2.516 6.24 2.408 6.872 2.408C7.504 2.408 8.084 2.516 8.612 2.732C9.14 2.948 9.6 3.252 9.992 3.644C10.384 4.036 10.684 4.496 10.892 5.024C11.108 5.552 11.216 6.132 11.216 6.764C11.216 7.388 11.108 7.968 10.892 8.504C10.684 9.032 10.384 9.492 9.992 9.884C9.6 10.276 9.14 10.58 8.612 10.796C8.084 11.012 7.508 11.12 6.884 11.12ZM6.872 9.2C7.2 9.2 7.5 9.14 7.772 9.02C8.052 8.9 8.292 8.732 8.492 8.516C8.7 8.292 8.86 8.032 8.972 7.736C9.084 7.44 9.14 7.116 9.14 6.764C9.14 6.412 9.084 6.088 8.972 5.792C8.86 5.496 8.7 5.24 8.492 5.024C8.292 4.8 8.052 4.628 7.772 4.508C7.5 4.388 7.2 4.328 6.872 4.328C6.544 4.328 6.24 4.388 5.96 4.508C5.688 4.628 5.448 4.8 5.24 5.024C5.032 5.24 4.872 5.496 4.76 5.792C4.656 6.088 4.604 6.412 4.604 6.764C4.604 7.116 4.656 7.444 4.76 7.748C4.872 8.044 5.032 8.3 5.24 8.516C5.448 8.732 5.688 8.9 5.96 9.02C6.24 9.14 6.544 9.2 6.872 9.2Z" fill="white"/>
</svg>
